<svg width="24" height="24" viewBox="0 0 24 24" fill="none" xmlns="http://www.w3.org/2000/svg">
<g id="shoe-print">
<path id="Vector" d="M10.7402 12.28C11.2102 11.05 11.1602 9.76996 9.75022 9.25996C6.85022 8.18996 6.20022 11 6.16022 11.14L10.7402 12.28ZM5.71022 13.09L10.0302 14.16C9.84022 15.21 10.1302 16.26 10.1302 17.5C10.1302 19.18 8.80022 22.47 6.68022 21.94C4.26022 21.34 3.91022 18.65 4.00022 17.35C4.12022 16.05 5.64022 13.27 5.71022 13.09ZM17.8502 4.14996C17.8202 3.99996 17.1602 1.19996 14.2602 2.25996C12.8602 2.77996 12.8002 4.05996 13.2702 5.28996L17.8502 4.14996ZM20.0002 10.35C20.1002 11.65 19.7602 14.35 17.3302 14.95C15.2202 15.5 13.8902 12.19 13.8902 10.5C13.8902 9.26996 14.1702 8.21996 14.0002 7.16996L18.3002 6.09996C18.3802 6.27996 19.8902 9.05996 20.0002 10.35Z" fill="#1256DB"/>
</g>
</svg>
