<svg width="24" height="24" viewBox="0 0 24 24" fill="none" xmlns="http://www.w3.org/2000/svg">
<g id="shoe-print">
<path id="Vector" d="M10.7397 12.28C11.2097 11.05 11.1597 9.76996 9.74973 9.25996C6.84973 8.18996 6.19973 11 6.15973 11.14L10.7397 12.28ZM5.70973 13.09L10.0297 14.16C9.83973 15.21 10.1297 16.26 10.1297 17.5C10.1297 19.18 8.79973 22.47 6.67973 21.94C4.25973 21.34 3.90973 18.65 3.99973 17.35C4.11973 16.05 5.63973 13.27 5.70973 13.09ZM17.8497 4.14996C17.8197 3.99996 17.1597 1.19996 14.2597 2.25996C12.8597 2.77996 12.7997 4.05996 13.2697 5.28996L17.8497 4.14996ZM19.9997 10.35C20.0997 11.65 19.7597 14.35 17.3297 14.95C15.2197 15.5 13.8897 12.19 13.8897 10.5C13.8897 9.26996 14.1697 8.21996 13.9997 7.16996L18.2997 6.09996C18.3797 6.27996 19.8897 9.05996 19.9997 10.35Z" fill="#94A3B8"/>
</g>
</svg>
